<svg width="287" height="48" viewBox="0 0 287 48" fill="none" xmlns="http://www.w3.org/2000/svg">
<path d="M257.874 30.9674H257.691C257.004 30.9674 256.363 31.3791 256.088 31.9737C256.088 31.9737 256.042 32.0652 255.997 32.2024C255.997 32.2024 255.997 32.2024 255.997 32.1567C255.814 32.4768 255.585 32.8885 255.447 33.0715C254.074 34.9926 251.877 36.2734 249.404 36.2734C245.422 36.2734 241.988 32.797 241.988 28.7718C241.988 24.5179 245.376 21.2245 249.404 21.2245C251.968 21.2245 254.303 22.551 255.676 24.7008C255.814 24.8838 255.859 25.021 255.905 25.0668C255.859 25.021 255.859 24.9753 255.859 24.8838C256.088 25.6157 256.775 26.1188 257.599 26.1188H257.691C258.698 26.1188 259.522 25.2955 259.522 24.2892V24.2434C259.522 23.8317 259.384 23.4201 259.11 23.0999C257.233 20.0352 253.753 17.8854 249.496 17.8854C242.95 17.8854 238.28 22.8712 238.28 28.7261C238.28 34.6724 242.721 39.521 249.496 39.521C254.166 39.521 257.782 37.1882 259.522 33.7119C259.659 33.4374 259.751 33.163 259.751 32.8428V32.6598C259.659 31.7907 258.881 30.9674 257.874 30.9674Z" fill="white"/>
<path d="M286.348 28.8633C286.348 28.8175 286.348 28.7718 286.348 28.726C286.348 22.9626 281.725 18.0226 275.27 18.0226C268.815 18.0226 264.191 22.9626 264.191 28.726C264.191 34.5809 268.586 39.3838 275.27 39.3838C278.291 39.3838 280.946 38.3775 282.823 36.7308V37.7828C282.823 37.7828 282.823 37.7828 282.823 37.8286C282.823 37.8286 282.823 37.8286 282.823 37.8743C282.869 38.8349 283.602 39.6125 284.563 39.6125C285.524 39.6125 286.302 38.8349 286.302 37.8743C286.302 37.8743 286.302 37.8743 286.302 37.8286C286.302 37.8286 286.302 37.8286 286.302 37.7828V28.8633H286.348ZM275.316 36.0904C271.424 36.0904 267.991 32.6598 267.991 28.726C267.991 24.5178 271.333 21.316 275.316 21.316C279.207 21.316 282.64 24.4721 282.64 28.726C282.594 32.6598 279.253 36.0904 275.316 36.0904Z" fill="white"/>
<path d="M232.924 19.7608C232.924 18.8002 232.146 18.0226 231.184 18.0226C230.223 18.0226 229.445 18.8002 229.445 19.7608C229.445 19.7608 229.445 19.7608 229.445 19.8065V37.8743C229.445 37.8743 229.445 37.8743 229.445 37.92C229.445 37.9658 229.445 37.92 229.445 37.9658C229.491 38.9263 230.223 39.704 231.184 39.704C232.146 39.704 232.924 38.9263 232.924 37.9658C232.924 37.9658 232.924 37.9658 232.924 37.92C232.924 37.8743 232.924 37.92 232.924 37.8743V19.7608Z" fill="white"/>
<path d="M223.631 27.7655C223.631 27.7197 223.631 27.674 223.631 27.674V27.3995C223.448 22.2765 219.511 18.0226 213.559 18.0226C207.608 18.0226 203.671 22.2308 203.488 27.3995V37.9658C203.488 38.9263 204.266 39.704 205.228 39.704C206.189 39.704 206.967 38.9263 206.967 37.9658V27.7655C206.967 24.1977 210.034 21.0415 213.605 21.0415C217.176 21.0415 220.243 24.1977 220.243 27.7655V37.9658C220.243 38.9263 221.021 39.704 221.983 39.704C222.944 39.704 223.722 38.9263 223.722 37.9658V28.2229V28.1771C223.722 28.1771 223.722 28.1771 223.722 28.1314L223.631 27.7655Z" fill="white"/>
<path d="M122.23 28.9089C122.23 23.054 117.561 18.0682 111.014 18.0682C104.468 18.0682 99.7984 23.054 99.7984 28.9089C99.7984 34.8553 104.239 39.7039 111.014 39.7039C114.081 39.7039 116.737 38.6976 118.659 37.0051V38.0572C118.659 38.0572 118.659 38.0572 118.659 38.1029C118.659 38.1029 118.659 38.1029 118.659 38.1487C118.705 39.1092 119.483 39.8868 120.445 39.8868C121.406 39.8868 122.184 39.1092 122.23 38.1487C122.23 38.1487 122.23 38.1487 122.23 38.1029C122.23 38.1029 122.23 38.1029 122.23 38.0572V29.0004C122.23 29.0004 122.23 28.9547 122.23 28.9089ZM111.014 36.3647C107.031 36.3647 103.598 32.8884 103.598 28.8632C103.598 24.6092 106.986 21.3159 111.014 21.3159C114.997 21.3159 118.43 24.5178 118.43 28.8632C118.43 32.8427 115.043 36.3647 111.014 36.3647Z" fill="white"/>
<path d="M95.4036 36.5935H94.3507C93.2062 36.5935 92.0617 35.8159 92.0617 33.4831V12.5336V12.4878V12.4421V12.3049C92.016 11.39 91.2377 10.6124 90.2763 10.6124C89.315 10.6124 88.5367 11.3443 88.491 12.3049V33.7118C88.491 38.0115 90.6884 39.9326 93.9845 39.9326H95.4494C96.365 39.9326 97.0974 39.2007 97.0974 38.2859C97.0517 37.3253 96.3192 36.5935 95.4036 36.5935Z" fill="white"/>
<path d="M145.715 18.0683C144.891 17.6566 143.838 18.0225 143.426 18.8459L135.689 34.5351L127.907 18.8459C127.495 18.0225 126.488 17.6566 125.618 18.0683C124.794 18.4799 124.428 19.4862 124.84 20.3553L134.179 39.155C134.453 39.7496 135.048 40.1156 135.689 40.1156C136.33 40.1156 136.925 39.7496 137.2 39.155L146.447 20.3553C146.905 19.4862 146.539 18.4799 145.715 18.0683Z" fill="white"/>
<path d="M160.914 17.8854C154.459 17.8854 149.606 22.551 149.606 28.8175C149.606 35.3128 154.504 39.7497 161.6 39.7497C164.713 39.7497 167.46 38.8806 169.612 37.2339C169.84 37.051 170.39 36.5478 170.39 35.9532C170.39 34.9469 169.383 33.9863 168.421 33.9863C167.872 33.9863 167.643 34.0778 167.323 34.3065C165.72 35.4043 163.981 36.4563 161.738 36.4563C158.029 36.4563 154.871 34.5809 154.092 31.2876L153.818 30.1898H169.612C170.985 30.1898 171.9 29.3207 171.9 28.0399C171.855 24.0147 168.925 17.8854 160.914 17.8854ZM153.772 26.7592C154.459 23.2828 157.343 21.1787 160.73 21.1787C164.026 21.1787 167.185 23.3286 167.689 26.7592H153.772Z" fill="white"/>
<path d="M186.687 11.756C186.092 11.756 185.497 11.4358 185.176 10.8411C184.764 10.0178 185.085 8.96574 185.909 8.55407L195.843 3.38531C196.667 2.97364 197.72 3.29382 198.132 4.11717C198.544 4.94051 198.224 5.99256 197.399 6.40423L187.465 11.573C187.237 11.7102 186.962 11.756 186.687 11.756Z" fill="white"/>
<path d="M19.4104 28.3601C20.0971 29.1377 21.2415 29.2292 22.0198 28.5431C22.798 27.857 22.8896 26.7134 22.2029 25.9358C21.5162 25.1582 20.3717 25.0668 19.5935 25.7529C18.8152 26.3475 18.7237 27.5825 19.4104 28.3601Z" fill="white"/>
<path d="M28.5662 7.18185C27.6964 6.81592 26.735 7.27333 26.3688 8.09668C26.0025 8.96576 26.4603 9.92633 27.2843 10.2923C33.8765 12.9453 38.2255 19.3033 38.2255 26.4389C38.2255 36.0446 30.3973 43.8664 20.7837 43.8664C11.1701 43.8664 3.34187 36.0446 3.34187 26.4389C3.34187 19.3948 7.50777 13.174 13.9626 10.4295C14.8324 10.0636 15.1987 9.10298 14.8782 8.2339C14.512 7.36481 13.5506 6.99888 12.6808 7.31907C4.94414 10.5667 0 18.0683 0 26.4389C0 37.8743 9.33894 47.2055 20.7837 47.2055C32.2285 47.2055 41.5674 37.8743 41.5674 26.4389C41.5674 17.9311 36.4402 10.338 28.5662 7.18185Z" fill="white"/>
<path d="M10.163 27.0793C10.163 32.98 14.924 37.7371 20.8295 37.7371C26.735 37.7371 31.496 32.98 31.496 27.0793C31.496 21.7733 27.559 17.2907 22.386 16.5588V3.38534H26.8723C27.7879 3.38534 28.5662 2.65348 28.5662 1.69292C28.5662 0.77809 27.8337 0.000488281 26.8723 0.000488281H20.6464C19.7308 0.000488281 18.9526 0.732349 18.9526 1.69292V16.6046C13.9626 17.5194 10.163 21.8648 10.163 27.0793ZM28.1084 27.0793C28.1084 31.0588 24.8581 34.3522 20.8295 34.3522C16.8009 34.3522 13.5506 31.1046 13.5506 27.0793C13.5506 23.0541 16.8009 19.8065 20.8295 19.8065C24.8581 19.8065 28.1084 23.0998 28.1084 27.0793Z" fill="white"/>
<path d="M69.1265 40.6645C60.7489 40.6645 53.9278 33.849 53.9278 25.4783C53.9278 17.1077 60.7489 10.2922 69.1265 10.2922C74.4368 10.2922 79.4725 13.1282 82.1735 17.7481C82.6313 18.5714 82.4024 19.5777 81.5784 20.0809C80.7543 20.5383 79.7472 20.3096 79.2436 19.4862C77.1378 15.9642 73.2008 13.6771 69.0807 13.6771C62.5343 13.6771 57.2697 18.9373 57.2697 25.4783C57.2697 32.0193 62.5343 37.2796 69.0807 37.2796C73.6586 37.2796 77.8703 34.6266 79.793 30.4184C80.205 29.5493 81.2121 29.1834 82.0362 29.5951C82.906 30.0067 83.2722 31.013 82.8602 31.8364C80.4339 37.1881 75.032 40.6645 69.1265 40.6645Z" fill="white"/>
<path d="M197.262 12.0762C196.347 12.0762 195.568 12.8538 195.568 13.7686V29.5493C195.568 33.7575 192.135 37.2796 187.832 37.2796C183.62 37.2796 180.095 33.849 180.095 29.5493V13.7686C180.095 12.8538 179.317 12.0762 178.401 12.0762C177.486 12.0762 176.707 12.8538 176.707 13.7686V29.5493C176.707 35.6787 181.697 40.7102 187.832 40.7102C193.966 40.7102 198.956 35.7702 198.956 29.5951V13.7686C198.956 12.8538 198.224 12.0762 197.262 12.0762Z" fill="white"/>
</svg>
